# xmcd
#
# Track frame offsets: 
#        150
#        49648
#        81532
#        118530
#        156451
#        175040
#        198150
#
# Disc length: 3215 seconds
#
# Revision: 1
# Processed by: cddbd v1.5.2PL0 Copyright (c) Steve Scherf et al.
# Submitted via: ExactAudioCopy v1.3
#
DISCID=560c8d07
DTITLE=Cannonball Adderley - Somethin' Else
DYEAR=2016
DGENRE=Jazz
TTITLE0=Autumn Leaves
TTITLE1=Love For Sale
TTITLE2=Somethin' Else
TTITLE3=One For Daddy-O
TTITLE4=Dancing In The Dark
TTITLE5=Bangoon
TTITLE6=Autumn Leaves (Alternate Take)
EXTD=YEAR: 1958
EXTT0=
EXTT1=
EXTT2=
EXTT3=
EXTT4=
EXTT5=
EXTT6=
PLAYORDER=
